<svg width="150" height="60" viewBox="0 0 150 60" fill="none" xmlns="http://www.w3.org/2000/svg">
<rect width="150" height="60" rx="3" fill="#32917B"/>
<path d="M55.9014 33.5811C55.9014 34.7119 55.4912 35.5938 54.6709 36.2266C53.8506 36.8594 52.7373 37.1758 51.3311 37.1758C49.8076 37.1758 48.6357 36.9795 47.8154 36.5869V35.1455C48.3428 35.3682 48.917 35.5439 49.5381 35.6729C50.1592 35.8018 50.7744 35.8662 51.3838 35.8662C52.3799 35.8662 53.1299 35.6787 53.6338 35.3037C54.1377 34.9229 54.3896 34.3955 54.3896 33.7217C54.3896 33.2764 54.2988 32.9131 54.1172 32.6318C53.9414 32.3447 53.6426 32.0811 53.2207 31.8408C52.8047 31.6006 52.1689 31.3281 51.3135 31.0234C50.1182 30.5957 49.2627 30.0889 48.7471 29.5029C48.2373 28.917 47.9824 28.1523 47.9824 27.209C47.9824 26.2188 48.3545 25.4307 49.0986 24.8447C49.8428 24.2588 50.8271 23.9658 52.0518 23.9658C53.3291 23.9658 54.5039 24.2002 55.5762 24.6689L55.1104 25.9697C54.0498 25.5244 53.0186 25.3018 52.0166 25.3018C51.2256 25.3018 50.6074 25.4717 50.1621 25.8115C49.7168 26.1514 49.4941 26.623 49.4941 27.2266C49.4941 27.6719 49.5762 28.0381 49.7402 28.3252C49.9043 28.6064 50.1797 28.8672 50.5664 29.1074C50.959 29.3418 51.5566 29.6025 52.3594 29.8896C53.707 30.3701 54.6328 30.8857 55.1367 31.4365C55.6465 31.9873 55.9014 32.7021 55.9014 33.5811ZM64.2158 37L59.8564 25.6094H59.7861C59.8682 26.5117 59.9092 27.584 59.9092 28.8262V37H58.5293V24.1504H60.7793L64.8486 34.75H64.9189L69.0234 24.1504H71.2559V37H69.7617V28.7207C69.7617 27.7715 69.8027 26.7402 69.8848 25.627H69.8145L65.4199 37H64.2158ZM82.8662 37L81.2666 32.9131H76.1162L74.5342 37H73.0225L78.1025 24.0977H79.3594L84.4131 37H82.8662ZM80.8008 31.5684L79.3066 27.5869C79.1133 27.083 78.9141 26.4648 78.709 25.7324C78.5801 26.2949 78.3955 26.9131 78.1553 27.5869L76.6436 31.5684H80.8008ZM86.1797 37V24.1504H87.6738V35.6465H93.3428V37H86.1797ZM95.5312 37V24.1504H97.0254V35.6465H102.694V37H95.5312Z" fill="white"/>
</svg>
